<svg version="1" xmlns="http://www.w3.org/2000/svg" width="346.667" height="346.667" viewBox="0 0 260.000000 260.000000"><path d="M8 130v122h243V8H8v122zm238 .1v110.7H13V19.4h233v110.7z"/><path d="M26.8 39.5c-3.7 3.7-4.4 7.6-4.3 25.6.1 13.9.4 17.3 1.9 20.8 3 6.5 7 6.6 10.1.3 1.5-3 1.9-6.6 2.1-19.7.2-8.8-.2-17.8-.7-20.1-.9-3.6-4.7-9.4-6.1-9.4-.3 0-1.6 1.1-3 2.5zM31.7 65c-.1 7.6-.5 14.2-.9 14.6-.4.4-1.4.2-2.1-.5-1.1-.8-1.4-4.3-1.3-14.9.1-14.3.9-17.9 3.2-14.8.9 1.3 1.2 5.8 1.1 15.6zM40.9 37.8c-.2.9-.2.1.6 11.7.3 5.5.8 11.1 1 12.5.4 2.2.7 6.3 2 22.5.2 2.2.3 4.6.4 5.2.1.7 1.2 1.3 2.6 1.3 1.4 0 2.5-.6 2.6-1.3.4-5.4.7-9.1 1.3-15.2.7-6.9 1-9.5 2-22.5.3-3.6.8-8.2 1.1-10.3.5-2.9.2-3.9-1-4.3-.9-.4-2.1-.2-2.7.4-1.1 1.1-1.2 1.8-2.3 15.7-.7 8.3-1.4 11-1.6 5.9-.1-3.7-.9-12.3-1.3-14.9-.2-1.1-.4-3.1-.5-4.5-.1-1.8-.7-2.6-2.1-2.7-1.1-.1-2.1.1-2.1.5zM76.7 38.4c-.1.6-.2 12.6-.2 26.6l.1 25.5 7.2.3 7.2.3V86c0-4.3-.3-5.2-2.2-5.9-1.3-.5-3-.5-4 0-2.2 1.2-3-.2-3.3-5.7-.1-2.7.2-4.4.9-4.3 3.2.4 3.6-.3 3.6-5.7 0-5.1-.2-5.6-2-5.1-1.1.3-2 .2-2.1-.1-.1-.4-.2-3-.3-5.7l-.2-5.1 4.6.1h4.5l.3-5.6.3-5.6h-7c-4 .1-7.2.5-7.4 1.1zM113 40c-.1 7.6-.1 46 0 48.6 0 2.8.3 3.1 2.4 2.7 2.4-.5 2.4-.7 2.2-9.1-.2-10 .1-12.2 1.9-12.2 2 0 2.8 3.6 2.7 12.7 0 8.2 0 8.3 2.5 8.3h2.5l-.6-12.8c-.3-7-.5-13.4-.5-14.2.7-17.5.4-19.6-2.4-23.3-2.4-3.2-3.2-3.6-6.7-3.4-3.5.2-4 .5-4 2.7zm8.2 9.5c1.4 1.8.8 7.3-.8 9-2.6 2.6-3.4-.4-2.5-9.3.1-1.4 2.2-1.2 3.3.3zM130.9 59.7c-.3 1.6-.1 9.2.4 9.9.4.8 3.4.9 12 .5 1.4-.1 1.7-1.1 1.7-5.5v-5.4l-7 .1c-3.8 0-7 .2-7.1.4zM22.4 130.1c0 24.7.1 26.8 1.7 27.2 1 .3 2 .2 2.3-.1.3-.3.6-5.1.6-10.8 0-9.2.2-10.2 1.8-9.9.9.2 2 .4 2.4.4.4.1.7 4.3.6 9.4-.2 10.1.3 11.8 3 11 1.8-.4 1.9-2.1 1.8-27.1-.1-28.4.1-27.1-4.3-26.3-.5 0-.8 4.9-.8 10.8 0 10.1-.1 10.8-2 10.8-1.8 0-2-.8-2.5-10.9s-.6-11-2.6-11.1c-2-.1-2 .3-2 26.6zM41.9 103.8c-1.3.2-1.5 3.8-1.3 26 0 14.1.2 26.1.3 26.7 0 .5 2.2.9 4.8.8 2.7-.1 5.8-.2 7.1-.2 2.1-.1 2.3-.5 2-5.4-.3-5.7.4-5.2-8-5.6-1.4-.1-1.8-1-1.8-4.6 0-3.9.3-4.5 2.5-5.1 2.3-.6 2.5-1.1 2.5-5.9 0-4.8-.2-5.2-2.2-5.1-2.1.1-2.3-.4-2.5-5.2-.1-4.3.1-5.2 1.5-5.3.9 0 3.1-.2 4.7-.2 2.9-.2 3-.4 3.3-5.5.2-2.8-.1-5.2-.5-5.3-2.4-.3-11.1-.4-12.4-.1zM99.7 105c-4.2 3.4-5 7.8-5.1 29.5-.2 22 0 23.4 2 23.1 2.4-.4 2.7-1.4 2.9-10.8.3-11.4.1-10.7 2.5-10.5 1.9.1 2 .8 2 10.2 0 5.6.3 10.4.6 10.7.3.3 1.4.4 2.5.1 1.9-.5 2-1.4 1.9-22.3-.1-19.7-.3-22.2-2.1-25.8-3-5.9-4.1-6.6-7.2-4.2zm3.9 12.4c1.1 4.3.1 8.1-2.1 8.1-1.7 0-2-.7-2.1-4 0-2.2.2-4.6.4-5.3.7-2.1 3.1-1.3 3.8 1.2zM131 117.2c-.1 7.6-.1 19.5-.1 26.5 0 12.8 0 12.8 2.4 13.1 2.4.3 2.4.3 2.3-9.7 0-5.5.3-10.3.7-10.7.4-.4 1.3-.1 2.2.6 1.1.9 1.5 3.4 1.5 10.5 0 8.5.2 9.3 2.1 9.8 2.9.8 3.2-.8 2.5-14-.7-14.6-.7-12.4-.1-21.3.7-12.2-2.3-18.1-9.5-18.4l-4-.2v13.8zm9 3.5c0 2.2-.6 3.6-2 4.3-1.5.8-2 .8-2.1-.2-.8-8.7.4-12.5 2.8-9.2.7 1 1.3 3.3 1.3 5.1zM149.2 104.9c-.9 1.9-.8 50.4.1 51.8 1.1 1.7 8.1.4 9.9-1.8 3-3.5 3.8-8.9 3.8-25.2 0-15.9-.6-19.4-4.2-24-1.9-2.5-8.6-3-9.6-.8zm8.8 24.7c0 13.4-.9 17.8-3.3 16.8-.9-.3-1.2-4.3-1.1-15.7.2-18.4 0-17 2.4-15.7 1.8 1 2 2.1 2 14.6zM22.9 170.8c-.4 1.8-.5 50.9-.1 51.9.4 1.1 2.6 1.2 3.8 0 .4-.4.6-5.9.5-12.4-.1-11.8.4-14.3 1.4-6.3.8 5.9 1.2 6 2 .6 1.3-8.3 2-5.6 1.8 6.5-.3 11.9-.3 11.9 2 11.9h2.4v-52h-2.3c-2.4 0-2.8.8-3.9 7.8-.8 5.1-1.1 5.1-1.9-.3-1-6.1-1.5-7.2-3.6-7.8-1.1-.3-2.1-.2-2.1.1zM63.8 171.7c-3.8 4.4-4.1 6.4-4.2 28.9-.1 19.1.1 22.4 1.4 22.7 3.1.8 3.5-.3 3.2-10.3l-.2-10h5v9.9c0 9.9.6 11.5 3.8 10.4 1.6-.6 1.7-38.9.1-44.8-1.1-4.2-4.4-8.5-6.4-8.5-.7 0-1.9.8-2.7 1.7zm5.2 15.5c0 2.6-.5 4.1-1.6 4.5-3.1 1.2-4.4-4.3-2.2-9.2 1.1-2.5 1.3-2.6 2.5-.9.7 1 1.3 3.5 1.3 5.6zM131 174.4c-.4 39.8-.2 48.9 1.3 49.8 2.4 1.3 3.2-.9 3.3-9.7.3-11.6.3-11.5 2-11.5 7.9 0 10.2-24.9 2.9-31-1-.8-3.5-1.5-5.6-1.6l-3.9-.2v4.2zm9 12.1c0 1.8-.8 4.1-1.7 5.1-1.6 1.5-1.7 1.5-2.3-.1-.4-1-.5-2.8-.4-3.9.1-1.2.3-3.1.3-4.4.1-2 .4-2.1 2.1-1.2 1.4.7 2 2.1 2 4.5zM149.1 193c-.4.8-.6 2.1-.5 2.7.1.7.2 2.6.3 4.1l.1 2.9 25.3-.1 25.2-.1.1-4.8c.1-2.6-.4-5.1-1-5.4-.6-.4-11.8-.8-24.9-.8-20.3 0-24 .2-24.6 1.5z"/></svg>