<svg xmlns="http://www.w3.org/2000/svg" xmlns:xlink="http://www.w3.org/1999/xlink" viewbox="0 0 400 400"><defs><linearGradient id="k"><stop offset="0" stop-color="#bdbdbd"/><stop offset="1" stop-color="#ececec"/></linearGradient><linearGradient id="i"><stop offset="0" stop-color="#bdbdbd"/><stop offset="1" stop-color="#ececec"/></linearGradient><linearGradient id="g"><stop offset="0" stop-color="#ececec"/><stop offset="1" stop-color="#bdbdbd"/></linearGradient><linearGradient id="f"><stop offset="0" stop-color="#ececec"/><stop offset="1" stop-color="#bdbdbd"/></linearGradient><linearGradient id="a"><stop offset="0" stop-color="#ddd"/><stop offset="1" stop-color="#b2b2b2"/></linearGradient><linearGradient id="b"><stop offset="0" stop-color="#2b2b2b"/><stop offset="1" stop-color="#666"/></linearGradient><linearGradient id="c"><stop offset="0" stop-color="#ddd"/><stop offset="1" stop-color="#b2b2b2"/></linearGradient><linearGradient id="d"><stop offset="0" stop-color="#ddd"/><stop offset="1" stop-color="#b2b2b2"/></linearGradient><linearGradient id="e"><stop offset="0" stop-color="#2b2b2b"/><stop offset="1" stop-color="#666"/></linearGradient><filter id="o" x="-.06" width="1.12" y="-.351" height="1.701" color-interpolation-filters="sRGB"><feGaussianBlur stdDeviation="11.585"/></filter><linearGradient id="h"><stop offset="0" stop-color="#ececec"/><stop offset="1" stop-color="#bdbdbd"/></linearGradient><linearGradient id="j"><stop offset="0" stop-color="#ececec"/><stop offset="1" stop-color="#bdbdbd"/></linearGradient><filter id="v" x="-.6" width="2.2" y="-.6" height="2.2" color-interpolation-filters="sRGB"><feGaussianBlur stdDeviation="25"/></filter><filter id="r" x="-.137" width="1.273" y="-.628" height="2.256" color-interpolation-filters="sRGB"><feGaussianBlur stdDeviation="14.654"/></filter><radialGradient xlink:href="#e" id="n" gradientUnits="userSpaceOnUse" gradientTransform="matrix(1 0 0 .17164 0 566.997)" cx="406.897" cy="915.517" fx="406.897" fy="915.517" r="231.035"/><radialGradient xlink:href="#b" id="p" gradientUnits="userSpaceOnUse" gradientTransform="matrix(1 0 0 .17164 0 566.997)" cx="406.897" cy="915.517" fx="406.897" fy="915.517" r="231.035"/><radialGradient xlink:href="#a" id="q" gradientUnits="userSpaceOnUse" gradientTransform="matrix(1 0 0 .17164 0 566.997)" cx="406.897" cy="810.565" fx="406.897" fy="810.565" r="231.035"/><radialGradient xlink:href="#g" id="t" gradientUnits="userSpaceOnUse" gradientTransform="matrix(1.37554 0 0 .098 -400.51 779.503)" cx="436.563" cy="229.079" fx="436.563" fy="229.079" r="192.271"/><radialGradient xlink:href="#f" id="s" gradientUnits="userSpaceOnUse" gradientTransform="matrix(.63944 0 0 .44778 -42.99 750.484)" cx="380" cy="242.364" fx="380" fy="242.364" r="200"/><linearGradient xlink:href="#k" id="m" gradientUnits="userSpaceOnUse" gradientTransform="translate(-72.818 521.4) scale(.63944)" x1="571.755" y1="645.867" x2="677.319" y2="495.26"/><filter id="u" x="-.188" width="1.375" y="-.088" height="1.177"><feGaussianBlur stdDeviation="8.527"/></filter><linearGradient id="l"><stop offset="0" stop-color="#ececec"/><stop offset="1" stop-color="#bdbdbd"/></linearGradient></defs><path d="M316.767 858.985l4.114-20.573s39.09 3.086 39.09 48.347-66.863 47.318-66.863 47.318l8.229-19.544s40.118-5.144 41.146-28.803c1.03-23.659-25.716-28.802-25.716-26.745z" fill="url(#m)" stroke="#d6d6d6" stroke-width=".639" transform="translate(0 -652.362)"/><path transform="matrix(.60285 0 0 .98108 -45.296 -338.45)" d="M637.931 684.483c0 21.9-103.438 39.655-231.035 39.655-127.596 0-231.034-17.754-231.034-39.655s103.438-39.655 231.035-39.655 231.034 17.754 231.034 39.655z" fill="url(#n)" filter="url(#o)"/><path transform="matrix(.60285 0 0 .98108 -46.362 -335.04)" d="M637.931 684.483c0 21.9-103.438 39.655-231.035 39.655-127.596 0-231.034-17.754-231.034-39.655s103.438-39.655 231.035-39.655 231.034 17.754 231.034 39.655z" fill="url(#p)"/><path d="M347.734 331.05c0 21.487-66.143 38.906-147.734 38.906-81.591 0-147.734-17.419-147.734-38.905 0-21.487 66.143-38.905 147.734-38.905 81.591 0 147.734 17.418 147.734 38.905z" fill="#f2f2f2"/><path transform="matrix(.63944 0 0 .98108 -60.188 -342.4)" d="M637.931 684.483c0 21.9-103.438 39.655-231.035 39.655-127.596 0-231.034-17.754-231.034-39.655s103.438-39.655 231.035-39.655 231.034 17.754 231.034 39.655z" fill="url(#q)"/><path transform="matrix(.4111 0 0 .63075 32.723 -102.602)" d="M637.931 684.483c0 21.9-103.438 39.655-231.035 39.655-127.596 0-231.034-17.754-231.034-39.655s103.438-39.655 231.035-39.655 231.034 17.754 231.034 39.655z" fill="#979797" fill-opacity=".392" stroke="#b7b7b7" stroke-width="6.279"/><path d="M534.287 210.525c0 15.46-57.654 27.994-128.773 27.994s-128.772-12.534-128.772-27.994 57.653-27.994 128.772-27.994c71.12 0 128.773 12.533 128.773 27.994z" transform="translate(-59.304 191.753) scale(.63944)" filter="url(#r)"/><path d="M72.111 813.22s0 179.044 127.889 179.044 127.889-179.045 127.889-179.045 0 25.578-127.889 25.578S72.759 811.6 72.111 813.22z" fill="url(#s)" transform="translate(0 -652.362)"/><path d="M72.178 160.857s0 25.578 127.889 25.578c127.888 0 127.888-25.578 127.888-25.578s0-25.577-127.889-25.577c-127.888 0-128.86 26.387-127.888 25.577z" fill="#e6e6e6"/><path d="M83.368 813.38s0 18.599 116.693 18.599 116.693-18.599 116.693-18.599 0-18.599-116.693-18.599S82.48 813.969 83.368 813.38z" fill="url(#t)" stroke="#d6d6d6" stroke-width=".543" transform="translate(0 -652.362)"/><path d="M73.339 177.127c-.392.944-.287 1.47-.14 1.348 0 0-.017 25.05 126.856 25.05 126.873 0 126.878-25.05 126.878-25.05s-.015-.38-.254-1.051c-1.735 4.794-15.61 23.975-126.624 23.975-113.597 0-125.472-20.07-126.716-24.272z" fill="#00f"/><path d="M359.077 605.56S400 564.636 400 523.713c0-40.923-54.564-68.205-54.564-109.129s40.923-40.923 54.564-40.923c13.641 0 54.564 40.923 54.564 40.923s-27.282-13.64-54.564-13.64-40.923 13.64-27.282 27.281c13.64 13.641 54.564 54.565 54.564 95.488s-67.82 83.56-68.205 81.847z" transform="translate(4.406 -137.534) scale(.48898)" opacity=".25" fill="#784421" stroke="#000" stroke-width=".682" filter="url(#u)"/><path d="M200.063 150.875c-94.852 0-107.837 13.58-109.063 16.75 11.303 5.344 39.362 12 109.063 12 69.342 0 97.489-6.577 108.906-11.906-1.04-2.883-11.097-16.844-108.907-16.844z" fill="#784421" stroke="#d6d6d6" stroke-width=".508"/><path d="M480 150c0 27.614-22.386 50-50 50s-50-22.386-50-50 22.386-50 50-50 50 22.386 50 50z" transform="matrix(.9206 0 0 .63944 -195.86 50.38)" opacity=".5" fill="#fff" filter="url(#v)"/></svg>