<svg xmlns="http://www.w3.org/2000/svg" viewBox="0 0 72.2 88.17"><defs><style>.cls-1{fill:#fff;}</style></defs><title>ww2</title><g id="Layer_2" data-name="Layer 2"><g id="Layer_1-2" data-name="Layer 1"><path class="cls-1" d="M35.2,57.57,19.9,87.87a2.11,2.11,0,0,1-.7.3,2.11,2.11,0,0,1-.7-.3C12.2,69.37,6.2,50.67,0,32.17a.94.94,0,0,1,1-1H9c.6,0,.7.3,1.1,1L21,65.37l14.1-30.8c.4-.5.7-.7,1-.7s.6.2,1,.7l14.1,31,10.9-33.4c.4-.7.5-1,1.1-1h8a.94.94,0,0,1,1,1C66,50.67,60,69.37,53.7,87.87a2.11,2.11,0,0,1-.7.3,2.11,2.11,0,0,1-.7-.3L37,57.57c-.4-.4-.5-.6-.9-.6S35.6,57.17,35.2,57.57Z"/><path class="cls-1" d="M36.7,3.4,48.7,33,59.3,1c.4-.7.5-1,1.1-1h8a.94.94,0,0,1,1,1C63.2,19.5,57.1,37.9,50.8,56.4a.87.87,0,0,1-.8.6c-.2,0-.5-.1-.7-.6L36.6,27.9c-.4-.4-.5-.6-.9-.6s-.5.2-.9.6L22.1,56.4c-.2.5-.5.6-.7.6a.87.87,0,0,1-.8-.6C14.3,37.9,8.2,19.5,2,1A.94.94,0,0,1,3,0h8c.6,0,.7.3,1.1,1L22.7,33l12-29.6c.4-.5.7-.7,1-.7S36.3,2.9,36.7,3.4Z"/></g></g></svg>
